# xmcd
#
# Track frame offsets: 
#        183
#        14655
#        28593
#        41505
#        54870
#        68925
#        82265
#        96143
#        109490
#        124663
#        136370
#        149073
#        164008
#        178715
#        193325
#        207230
#        221055
#        234793
#        247963
#        261688
#        276535
#        289960
#        305005
#
# Disc length: 4271 seconds
#
# Revision: 4
# Processed by: cddbd v1.5.2PL0 Copyright (c) Steve Scherf et al.
# Submitted via: ExactAudioCopy v1.0b1
#
DISCID=7910ad17
DTITLE=Texas Alexander - Complete Recorded Works, Vol. 1 (1927 - 1928)
DYEAR=1990
DGENRE=Blues
TTITLE0=Range in My Kitchen Blues (1927)
TTITLE1=Long Lonesome Day Blues (1927)
TTITLE2=Corn-Bread Blues (1927)
TTITLE3=Section Gang Blues (1927)
TTITLE4=Levee Camp Moan Blues (1927)
TTITLE5=Mama, I Heard You Brought It Right Back Home (1927)
TTITLE6=Farm Hand Blues (1927)
TTITLE7=Evil Women Blues (1927)
TTITLE8=Sabine River Blues (1927)
TTITLE9=Death Bed Blues (1927)
TTITLE10=Yellow Girl Blues (1927)
TTITLE11=West Texas Blues (1927)
TTITLE12=Bantam Rooster Blues (1927)
TTITLE13=Bantam Rooster Blues (1928)
TTITLE14=Deep Blue Sea Blues (1928)
TTITLE15=No More Women Blues (1928)
TTITLE16=Don't You Wish Your Baby was Built Up Like Mine (1928)
TTITLE17=Bell Cow Blues (1928)
TTITLE18=Sittin' on a Log (1928)
TTITLE19=Mama's Bad Luck Child (1928)
TTITLE20=Boe Hog Blues (1928)
TTITLE21=Work Ox Blues (1928)
TTITLE22=The Risin' Sun (1928)
EXTD=Matchbox Blues Master Series MBCD2001\n\nTexas Alexander:  vocal\n
EXTD=Lonnie Johnson:  guitar\nEddie Heywood:  piano\nEddie Lang:  guit
EXTD=ar\n\nSubmitted by jmccoy@efn.org\n(March 1997) YEAR: 1990
EXTT0=
EXTT1=
EXTT2=
EXTT3=
EXTT4=
EXTT5=
EXTT6=
EXTT7=
EXTT8=
EXTT9=
EXTT10=
EXTT11=
EXTT12=
EXTT13=
EXTT14=
EXTT15=
EXTT16=
EXTT17=
EXTT18=
EXTT19=
EXTT20=
EXTT21=
EXTT22=
PLAYORDER=
